<?xml version="1.0" encoding="UTF-8"?>
<svg id="Camada_3" xmlns="http://www.w3.org/2000/svg" viewBox="0 0 141.64 73.93">
  <defs>
    <style>
      .cls-1 {
        fill: #ee7252;
      }
    </style>
  </defs>
  <path class="cls-1" d="M42.75,68.92c.99-15.46,1.57-54.25-16.94-59.28-.46-.16-1.14-.26-1.61-.37,0,0-.83-.1-.83-.1-.2-.03-.62-.08-.83-.08-.47-.03-1.21-.06-1.68-.03-2.77.08-5.67.62-8.32,1.62-1.49.61-2.88,1.52-3.99,2.67-2.52,2.55-2.04,5.22.31,7.72,2.39,2.5,5.54,4.15,8.7,5.51,4.38,1.84,9.03,3.09,13.71,3.99,30.98,5.49,63.23-.72,91.93-12.95,4.45-1.91,8.83-3.99,13.13-6.23l.14.26c-4.26,2.34-8.6,4.52-13.02,6.54-28.72,12.93-61.21,19.79-92.6,14.62-8.01-1.44-22.77-5.2-26.29-13.3-.89-2.1-.65-4.57.57-6.5,1.73-2.77,4.59-4.65,7.65-5.65,2.58-.79,5.25-1.34,8.02-1.4.75-.04,1.69.03,2.44.07.29.03,1.16.15,1.47.19.37.08,1.11.22,1.46.31.47.15.97.27,1.43.43,0,0,.93.36.93.36,12.09,5.02,15.08,21.71,15.86,33.38.45,7,.24,14.04-.42,21.02-.24,2.42-.52,4.84-.92,7.24l-.29-.04h0Z"/>
  <g>
    <path class="cls-1" d="M55.45,41.12c.13-.02.25.01.35.09s.17.18.19.31c.02.13,0,.25-.08.35-1.22,1.68-2.32,2.52-3.29,2.52-.19,0-.38-.03-.56-.1-.27-.1-.44-.29-.52-.56-.09-.35.02-.79.33-1.32.31-.53.82-1.22,1.54-2.06.1-.12.16-.2.19-.24.09-.1.19-.16.32-.17s.24.02.34.1c.1.08.16.19.17.32.01.13-.02.25-.1.35-.03.04-.1.12-.2.25-.49.58-.87,1.05-1.12,1.41-.33.48-.52.83-.56,1.05.31.07.7-.08,1.17-.45s.97-.93,1.5-1.66c.08-.11.18-.17.31-.19ZM54.47,39.72c-.27-.21-.27-.5.02-.87.05-.07.1-.13.16-.17.11-.11.24-.16.37-.17.13,0,.23.03.3.1.27.21.27.5-.02.87-.05.07-.1.13-.16.17-.11.11-.24.16-.38.16-.11,0-.2-.03-.29-.1Z"/>
    <path class="cls-1" d="M59.84,41.12c.13-.02.25.01.35.1.1.08.16.19.18.32.01.13-.02.24-.1.34-.34.43-.75.83-1.24,1.2-.49.37-1,.67-1.54.9-.64.28-1.21.42-1.73.42-.47,0-.86-.11-1.17-.34-.06-.05-.12-.11-.18-.19s-.1-.18-.15-.31c-.05-.13-.06-.3-.03-.5.03-.2.1-.43.2-.67.14-.31.33-.62.58-.94s.54-.61.85-.87c.31-.26.66-.46,1.04-.59s.74-.16,1.07-.09c.25.05.41.18.48.39.01.06.02.11.03.16,0,.05,0,.1-.02.14-.02.05-.03.09-.05.12-.01.04-.04.08-.08.12-.04.05-.06.08-.09.11-.02.03-.05.06-.1.11-.3.33-.47.62-.49.86-.01.09-.05.16-.1.23-.05.07-.11.12-.19.15-.08.03-.16.04-.24.03-.08-.01-.16-.04-.23-.09-.07-.05-.12-.11-.15-.19-.03-.08-.04-.16-.04-.24.04-.29.14-.58.31-.85-.42.2-.83.54-1.21,1.01-.25.3-.43.58-.53.83s-.15.42-.12.5c.12.09.29.13.5.15.21.01.44-.01.69-.08.25-.06.52-.15.81-.28s.57-.28.85-.45c.28-.18.55-.38.81-.61.26-.23.5-.48.71-.74.08-.1.18-.16.31-.18Z"/>
    <path class="cls-1" d="M61.9,39.56c-.36.47-.69.91-.99,1.33-.85,1.21-1.35,2.06-1.48,2.56.59.04,1.45-.67,2.58-2.15.08-.1.18-.16.31-.18.13-.02.25.01.35.09.1.08.16.18.18.31.02.13-.01.25-.09.35-.27.36-.53.67-.76.94-.24.27-.5.53-.78.78-.29.25-.57.45-.86.59-.29.14-.57.21-.85.21-.19,0-.38-.04-.57-.11-.23-.09-.38-.25-.44-.5-.06-.25.02-.62.23-1.11.21-.49.67-1.24,1.37-2.26.19-.27.4-.55.62-.85h-.08c-.13,0-.24-.04-.33-.13-.09-.09-.14-.2-.15-.33,0-.13.04-.25.13-.34.09-.09.2-.14.33-.14h.81c.31-.39.51-.63.6-.73.09-.1.2-.15.33-.16.13,0,.24.03.34.12.1.09.15.2.15.33,0,.13-.04.25-.12.34-.01.01-.04.04-.06.06h.16c.13,0,.24.05.33.14s.14.2.14.33-.04.24-.13.33c-.09.09-.2.14-.33.14h-.92Z"/>
    <path class="cls-1" d="M63.82,43.64c-.28.24-.56.43-.85.56-.29.13-.56.19-.82.19-.28,0-.52-.08-.72-.23-.25-.19-.4-.46-.44-.82-.04-.31.02-.66.16-1.04.14-.38.36-.75.67-1.11.26-.32.56-.59.88-.81.14-.09.28-.1.42-.05.24-.2.49-.32.75-.37.31-.05.59.01.83.18.25.19.4.47.44.82.06.5-.1,1.05-.46,1.65.51-.19,1.06-.61,1.64-1.27.09-.1.19-.15.32-.16.13,0,.24.03.34.12.1.09.15.2.16.33,0,.13-.03.25-.12.35-.59.67-1.17,1.13-1.72,1.39-.55.26-1.05.34-1.49.26ZM62.91,43.14c-.3-.31-.47-.7-.5-1.16-.17.24-.3.48-.38.7s-.11.41-.09.55c0,.09.03.14.06.16.05.06.16.06.34.02.18-.05.36-.14.56-.27ZM64.13,40.92s-.04-.01-.06-.01h-.04c-.17.03-.34.16-.5.39-.13.19-.19.41-.17.64.01.23.1.42.26.57.21-.26.37-.53.47-.78.1-.26.14-.47.13-.63-.01-.09-.04-.14-.08-.17Z"/>
    <path class="cls-1" d="M69.74,40.3s.02.08.03.12c0,.04,0,.08,0,.11,0,.03-.01.07-.03.11-.02.04-.03.08-.05.11-.01.03-.04.08-.08.13-.04.06-.07.1-.09.14-.03.04-.07.09-.12.17-.35.49-.54.82-.56.97.07.09.11.19.11.3s-.04.21-.11.3c-.09.11-.19.17-.32.18-.13.01-.24-.03-.34-.11-.34-.28-.39-.7-.13-1.26.04-.07.08-.15.12-.23-.14.09-.28.2-.42.32-.67.54-1.33,1.21-1.99,2.01-.01.01-.03.03-.04.05-.09.12-.17.22-.23.3-.15.19-.3.28-.45.28-.05,0-.1,0-.15-.02-.11-.04-.2-.11-.26-.21-.06-.1-.08-.22-.06-.34.01-.07.04-.14.09-.19.12-.15.24-.3.37-.46,1-1.35,1.66-2.38,1.98-3.07.06-.11.15-.19.27-.24.12-.05.24-.04.36.01s.2.14.25.26c.05.12.04.24-.02.37h0c.67-.41,1.19-.56,1.58-.44.16.06.26.16.31.32Z"/>
    <path class="cls-1" d="M82.13,39.43c-.15.03-.29,0-.42-.08s-.21-.2-.24-.35c-.03-.15,0-.29.08-.42.34-.51.57-1.07.71-1.68s.17-1.15.09-1.62-.24-.8-.48-.99c-.37-.28-.86-.4-1.46-.35s-1.25.24-1.96.59c-.79.39-1.57.93-2.36,1.62-.78.69-1.51,1.48-2.19,2.37-.97,1.28-1.7,2.61-2.2,3.97-.5,1.37-.66,2.52-.5,3.46.11.64.37,1.1.77,1.37.48.31,1.11.39,1.89.23s1.66-.55,2.65-1.18c.92-.58,1.88-1.32,2.86-2.22s1.91-1.88,2.78-2.94c.1-.11.23-.18.38-.2.15-.02.29.02.4.12.12.1.19.23.2.38.02.15-.02.29-.12.41-.9,1.1-1.87,2.12-2.9,3.07-1.03.94-2.03,1.72-3.01,2.32-1.51.95-2.84,1.43-3.98,1.43-.67,0-1.26-.17-1.76-.5-.68-.45-1.1-1.16-1.26-2.12-.19-1.1-.03-2.4.5-3.9.53-1.5,1.33-2.96,2.39-4.38.48-.64.99-1.23,1.54-1.78.54-.55,1.1-1.04,1.68-1.47.57-.43,1.15-.79,1.72-1.07.93-.46,1.79-.7,2.58-.72.79-.02,1.46.18,2.01.59.33.24.58.59.74,1.05.16.46.24.98.21,1.57-.02.54-.12,1.09-.3,1.65-.17.56-.41,1.06-.71,1.52-.09.13-.2.21-.35.24Z"/>
    <path class="cls-1" d="M101.81,46.11c.15,0,.28.06.39.17.11.11.16.24.16.4s-.06.28-.17.39c-2.18,2.12-4.44,3.18-6.78,3.18-.49,0-.99-.05-1.49-.14-.79-.16-1.57-.43-2.34-.83-.77-.39-1.46-.83-2.05-1.31-.59-.48-1.17-1.02-1.72-1.62-.55-.6-1.01-1.15-1.38-1.64s-.69-.98-.98-1.48l-4,5.23c-.11.14-.26.21-.44.21-.13,0-.24-.04-.33-.11-.12-.09-.2-.22-.22-.37-.02-.15,0-.29.1-.41.02-.02.05-.06.08-.11s.09-.16.17-.31c.08-.15.15-.31.2-.48.06-.16.11-.37.16-.62s.07-.49.07-.74c0-.15.04-.28.15-.39.11-.11.24-.17.4-.17.14,0,.27.04.38.13.11.1.17.22.18.36l2.52-3.31h0s-.01-.02-.01-.03c-.06-.12-.07-.25-.03-.38.04-.13.12-.23.23-.31.13-.09.27-.11.42-.08l4.6-6.01c.09-.12.22-.19.37-.21.15-.02.29.02.41.11.12.09.19.21.21.37.02.15-.02.29-.11.41l-4.52,5.92c.91.4,1.99.61,3.23.63.21,0,.43,0,.65,0s.47-.04.76-.08c.29-.04.57-.09.85-.16.28-.06.57-.15.89-.27.32-.11.62-.25.91-.4s.58-.34.88-.56c.3-.23.57-.47.83-.75.62-.66,1.03-1.31,1.26-1.96.22-.65.24-1.25.04-1.81-.19-.54-.55-.99-1.08-1.37s-1.17-.62-1.9-.74c-1.05-.16-2.15-.08-3.29.24-1.14.32-2.22.85-3.23,1.58-.13.09-.27.12-.42.1s-.27-.09-.36-.22c-.09-.12-.12-.26-.1-.41.03-.15.1-.27.22-.37,1.13-.82,2.34-1.41,3.62-1.77,1.28-.35,2.52-.44,3.73-.25.93.14,1.74.47,2.44.98.69.51,1.17,1.13,1.42,1.86.26.76.26,1.56,0,2.41s-.78,1.68-1.54,2.49c-.79.84-1.76,1.49-2.9,1.93-1.14.44-2.38.65-3.72.63-1.01-.02-1.97-.17-2.87-.44.3.45.62.89.96,1.32s.75.89,1.24,1.39c.49.49.99.94,1.5,1.33s1.09.74,1.73,1.06,1.28.54,1.93.67c2.48.48,4.9-.43,7.28-2.74.11-.11.25-.16.4-.16Z"/>
  </g>
  <path class="cls-1" d="M42.9,68.94c1.11-18.57,7.87-42.33,20.02-56.69.95-1.11,1.94-2.18,2.99-3.18,1.05-1.01,2.15-1.96,3.3-2.83-14.44,16.6-20.92,41.7-26.32,62.7h0Z"/>
</svg>