<?xml version="1.0" encoding="UTF-8"?>
<svg id="Camada_5" xmlns="http://www.w3.org/2000/svg" viewBox="0 0 821.47 536.54">
  <defs>
    <style>
      .cls-1, .cls-2 {
        fill: #241e33;
      }

      .cls-3 {
        fill: #f3f0f5;
        font-family: Nexa-Heavy, Nexa;
        font-size: 57.88px;
        font-weight: 800;
      }

      .cls-4, .cls-5 {
        fill: #ee7252;
      }

      .cls-2, .cls-5 {
        stroke: #241e33;
        stroke-miterlimit: 10;
      }

      .cls-6 {
        fill: none;
        stroke: #ee7252;
        stroke-linecap: round;
        stroke-linejoin: round;
        stroke-width: 1.5px;
      }
    </style>
  </defs>
  <g id="Skills">
    <g id="Skills-2" data-name="Skills">
      <g id="Level_Div">
        <rect class="cls-6" x="105.74" y="99.78" width="552.47" height="27.7"/>
        <rect class="cls-6" x="105.74" y="180.08" width="552.47" height="27.7"/>
        <rect class="cls-6" x="105.74" y="260.38" width="552.47" height="27.7"/>
        <rect class="cls-6" x="105.74" y="340.69" width="552.47" height="27.7"/>
        <rect class="cls-6" x="105.74" y="420.99" width="552.47" height="27.7"/>
        <rect class="cls-6" x="105.74" y="501.29" width="552.47" height="27.7"/>
      </g>
      <g id="Icon_Levels">
        <g id="Photoshop">
          <rect class="cls-5" x="668.75" y="92.22" width="46.99" height="42.81" rx="8" ry="8"/>
          <g>
            <path class="cls-2" d="M678.54,102.81h6.2c4.87,0,8.15,1.39,8.15,5.42s-3.27,5.69-8.02,5.69h-3.57v7.31h-2.76v-18.42ZM684.53,112.02c3.8,0,5.61-1.17,5.61-3.79s-1.93-3.52-5.74-3.52h-3.09v7.31h3.22Z"/>
            <path class="cls-2" d="M694.9,119.67l1.34-1.52c1.4.95,2.82,1.62,4.75,1.62,2.11,0,3.16-.95,3.16-2.12,0-1.4-1.9-2.02-3.68-2.59-2.25-.7-4.8-1.64-4.8-3.94,0-2.18,2.06-3.87,5.55-3.87,2,0,3.76.7,5,1.53l-1.3,1.48c-1.11-.69-2.25-1.21-3.67-1.21-2.03,0-2.96.92-2.96,1.96,0,1.3,1.75,1.79,3.57,2.37,2.32.74,4.91,1.54,4.91,4.14,0,2.21-2.07,4.06-5.87,4.06-2.29,0-4.49-.82-6-1.89Z"/>
          </g>
        </g>
        <g id="Illustrator">
          <rect class="cls-4" x="668.75" y="172.53" width="46.99" height="42.81" rx="8" ry="8"/>
          <g>
            <path class="cls-2" d="M685.74,183.73h3.22l7.58,18.42h-3.02l-3.91-10.29c-.8-2.06-1.52-4.08-2.24-6.21h-.14c-.69,2.14-1.41,4.15-2.22,6.21l-3.95,10.29h-2.9l7.58-18.42ZM682.15,194.67h10.32v1.87h-10.32v-1.87Z"/>
            <path class="cls-2" d="M698.94,184.21c0-.91.85-1.49,1.94-1.49s1.94.58,1.94,1.49-.85,1.49-1.94,1.49-1.94-.62-1.94-1.49ZM699.45,188.51h2.81v13.64h-2.81v-13.64Z"/>
          </g>
        </g>
        <g id="After_Effects">
          <rect class="cls-4" x="668.75" y="252.83" width="46.99" height="42.81" rx="8" ry="8"/>
          <g>
            <path class="cls-2" d="M682.59,263.2h3.12l7.35,18.42h-2.93l-3.79-10.29c-.78-2.06-1.48-4.08-2.17-6.21h-.13c-.67,2.14-1.37,4.15-2.15,6.21l-3.83,10.29h-2.81l7.35-18.42ZM679.11,274.14h10v1.87h-10v-1.87Z"/>
            <path class="cls-2" d="M694.68,274.82c0-4.44,3.53-7.17,7.23-7.17,4.1,0,6.42,2.5,6.42,6.4,0,.49-.05.97-.13,1.31h-10.83c.2,2.89,2.28,4.76,5.35,4.76,1.54,0,2.81-.42,4-1.09l.98,1.51c-1.41.78-3.12,1.42-5.31,1.42-4.29,0-7.7-2.66-7.7-7.14ZM705.93,273.7c0-2.73-1.45-4.22-3.97-4.22-2.26,0-4.28,1.54-4.61,4.22h8.58Z"/>
          </g>
        </g>
        <g id="Premiere">
          <rect class="cls-4" x="668.75" y="333.13" width="46.99" height="42.81" rx="8" ry="8"/>
          <g>
            <path class="cls-2" d="M683.43,356.53v6.71h-3.12v-18h6.47c1.37,0,2.56.13,3.58.4,1.01.26,1.85.64,2.51,1.12.66.48,1.16,1.07,1.48,1.76s.49,1.46.49,2.31-.17,1.61-.52,2.3c-.35.69-.86,1.29-1.54,1.8-.68.51-1.52.9-2.52,1.18-1,.28-2.16.42-3.47.42h-3.35ZM683.43,354.56h3.35c.8,0,1.51-.09,2.13-.27s1.13-.44,1.55-.77c.42-.33.73-.72.94-1.18.21-.46.32-.96.32-1.51,0-1.15-.41-2.04-1.22-2.68-.81-.63-2.05-.95-3.72-.95h-3.35v7.36Z"/>
            <path class="cls-2" d="M698.19,363.24v-13.4h1.73c.32,0,.55.05.68.15.13.1.21.27.23.51l.21,1.97c.51-.89,1.15-1.58,1.9-2.1.75-.51,1.66-.77,2.73-.77.35,0,.69.03,1,.09.31.06.59.16.84.29l-.24,1.78c-.03.23-.19.34-.48.34-.16,0-.39-.03-.68-.08-.29-.05-.62-.08-.97-.08-.51,0-.97.06-1.36.19-.39.12-.75.31-1.06.55-.32.24-.59.54-.83.88-.24.35-.46.74-.67,1.19v8.47h-3.02Z"/>
          </g>
        </g>
        <g id="Corel">
          <rect class="cls-4" x="668.75" y="413.6" width="46.99" height="42.81" rx="8" ry="8"/>
          <g>
            <path class="cls-1" d="M688.18,428.89c-.02-4.23.4-7.25,1.83-10.06.35-.69.79-1.34,1.2-1.99.06-.1.23-.17.35-.17.44-.02.88,0,1.33-.01.22,0,.34.09.46.26,1.38,1.96,2.21,4.14,2.63,6.49.41,2.31.37,4.64.23,6.97-.16,2.57-.5,5.12-.95,7.65-.6,3.39-1.4,6.74-2.33,10.05-.06.22-.16.27-.37.27-.9,0-.9,0-1.14-.85-1.15-4.11-2.09-8.27-2.65-12.51-.31-2.39-.46-4.8-.58-6.1Z"/>
            <path class="cls-1" d="M691.16,448.42c-.17-.09-.39-.14-.49-.28-2.67-3.73-5.06-7.63-6.93-11.83-1.01-2.25-1.87-4.56-2.29-7-.42-2.43-.27-4.81.79-7.08.97-2.07,2.57-3.52,4.55-4.61,1-.55,2.07-.76,3.27-.85-.24.18-.44.32-.63.47-2.43,1.87-3.8,4.37-4.37,7.35-.48,2.51-.34,5.02.1,7.53.81,4.57,2.45,8.85,4.44,13.01.46.96.96,1.9,1.44,2.84.06.11.11.23.17.35-.02.03-.05.07-.07.1Z"/>
            <path class="cls-1" d="M693.28,448.3c.58-1.15,1.17-2.3,1.72-3.46,1.64-3.41,3-6.93,3.88-10.61.56-2.35.92-4.72.82-7.14-.12-2.87-.84-5.54-2.63-7.86-.66-.85-1.43-1.58-2.3-2.2-.1-.07-.2-.15-.31-.24,1.81-.04,3.31.72,4.7,1.74,2.66,1.95,3.93,4.63,4.08,7.89.1,2.3-.46,4.48-1.2,6.63-1.07,3.1-2.5,6.03-4.18,8.83-1.27,2.12-2.67,4.16-4.03,6.23-.09.14-.32.2-.48.3l-.07-.12Z"/>
            <path class="cls-1" d="M690.03,448.16c-.54-.59-1.08-1.18-1.62-1.76-3.38-3.6-6.27-7.53-8.33-12.04-1.01-2.21-1.76-4.5-1.85-6.95-.13-3.64,1.37-6.42,4.45-8.36.43-.27.88-.5,1.33-.71-.59.5-1.21.96-1.76,1.5-1.68,1.67-2.54,3.73-2.71,6.08-.17,2.33.3,4.57,1.05,6.75,1.5,4.35,3.87,8.22,6.67,11.85.85,1.11,1.79,2.15,2.69,3.22.07.09.15.18.23.26-.05.05-.1.1-.15.15Z"/>
            <path class="cls-1" d="M694.32,448.02c.47-.54.95-1.06,1.4-1.61,3.14-3.75,5.82-7.79,7.66-12.34.92-2.27,1.58-4.62,1.6-7.09.03-3.53-1.32-6.38-4.28-8.41-.09-.06-.17-.12-.27-.19.04-.01.06-.03.08-.03,2.48,1.17,4.38,2.89,5.28,5.55.59,1.74.59,3.52.27,5.31-.5,2.82-1.63,5.39-3.03,7.85-2.26,3.99-5.07,7.56-8.38,10.74-.09.09-.19.18-.29.26-.02-.02-.04-.03-.05-.05Z"/>
            <path class="cls-1" d="M692.21,453.34c-.35,0-.69.01-1.04,0-.59-.02-.87-.3-.88-.89,0-.56,0-1.12,0-1.69.01-.55.28-.85.84-.87.74-.02,1.48-.02,2.22,0,.57.02.84.32.85.89,0,.56,0,1.12,0,1.69-.01.55-.28.84-.84.86-.38.02-.76,0-1.15,0h0Z"/>
          </g>
        </g>
        <g id="Blender">
          <rect class="cls-4" x="668.75" y="493.73" width="46.99" height="42.81" rx="8" ry="8"/>
          <g>
            <path class="cls-1" d="M686.89,510.18s-.1,0-.14,0c-2.03,0-4.07,0-6.1,0-.27,0-.55,0-.81-.09-.13-.04-.27-.1-.39-.16-.59-.34-.8-.96-.55-1.59.18-.45.51-.76.92-1,.39-.23.82-.34,1.27-.34,1.96,0,3.93,0,5.89,0,2.09,0,4.17,0,6.26,0,.18,0,.37,0,.55,0,.03,0,.06,0,.11-.02-.06-.05-.09-.08-.13-.12-1.31-1.07-2.62-2.13-3.94-3.2-.09-.07-.17-.14-.25-.22-.37-.38-.42-.9-.13-1.34.23-.35.55-.56.94-.68.5-.16.99-.17,1.49,0,.19.07.36.17.52.29,2.41,1.86,4.83,3.71,7.24,5.57.9.69,1.79,1.38,2.69,2.06.94.72,1.76,1.56,2.42,2.55.76,1.15,1.27,2.4,1.5,3.76.11.63.15,1.26.12,1.89-.09,2.2-.86,4.14-2.26,5.84-1.44,1.74-3.26,2.89-5.4,3.56-.73.23-1.48.37-2.24.45-.71.08-1.43.09-2.14.04-2.2-.16-4.22-.84-6.02-2.12-1.46-1.04-2.61-2.35-3.39-3.96-.4-.83-.68-1.69-.8-2.61-.04-.32-.09-.64-.06-.97.02-.21.04-.42.06-.63,0-.03,0-.05,0-.08-.07,0-.1.04-.13.07-.48.39-.96.79-1.44,1.18-1.56,1.28-3.11,2.55-4.67,3.83-.39.32-.82.56-1.31.67-.37.08-.73.09-1.1,0-.83-.22-1.33-.9-1.28-1.76.04-.63.32-1.15.74-1.6.11-.12.24-.23.37-.33,3.82-2.92,7.64-5.85,11.46-8.77.05-.04.09-.07.14-.11,0-.01,0-.02-.01-.04ZM695.23,522.61c.48,0,.97-.05,1.46-.15,1.27-.26,2.39-.8,3.35-1.67,1.18-1.08,1.88-2.4,2-4.01.05-.6-.01-1.19-.16-1.78-.3-1.18-.91-2.17-1.81-2.99-1.38-1.26-3.03-1.83-4.89-1.84-.57,0-1.13.06-1.68.2-1.31.31-2.45.92-3.4,1.89-1.05,1.07-1.65,2.35-1.74,3.85-.04.73.06,1.45.3,2.14.48,1.36,1.35,2.41,2.54,3.2,1.21.8,2.56,1.15,4.02,1.17Z"/>
            <path class="cls-1" d="M695.11,520.05c-1.03-.02-2.06-.37-2.93-1.14-.63-.56-1.05-1.25-1.22-2.08-.23-1.15.04-2.18.78-3.08.64-.78,1.47-1.26,2.45-1.48,1.22-.27,2.38-.1,3.45.55.86.52,1.48,1.25,1.77,2.23.38,1.27.11,2.42-.72,3.43-.64.78-1.48,1.25-2.47,1.46-.33.07-.66.1-1.12.11Z"/>
          </g>
        </g>
      </g>
      <g id="Levels">
        <rect class="cls-4" x="105.74" y="99.78" width="424.5" height="27.7"/>
        <rect class="cls-4" x="105.74" y="180.08" width="376.06" height="27.7"/>
        <rect class="cls-4" x="105.74" y="260.38" width="151.8" height="27.7"/>
        <rect class="cls-4" x="105.74" y="340.69" width="136.81" height="27.7"/>
        <rect class="cls-4" x="105.74" y="421.15" width="359.55" height="27.7"/>
        <rect class="cls-4" x="105.74" y="501.29" width="68.41" height="27.7"/>
      </g>
    </g>
    <g id="Skills_Det">
      <text id="Skills_Det-2" data-name="Skills_Det" class="cls-3" transform="translate(319.93 49.19)"><tspan x="0" y="0">Skills</tspan></text>
      <g>
        <path class="cls-4" d="M506.3,6l23.94,11.65-3.86,4.98c-2.86-1.4-5.87-2.86-9.17-4.47l-3.25-1.58c-3.31-1.61-6.31-3.07-9.18-4.46l1.53-6.11Z"/>
        <path class="cls-4" d="M493.22,30.41s0,0,.01-.01c3.86-3.06,6.79-7.02,9.14-10.49.12-.17.23-.34.35-.51,1.16-1.69,2.35-3.44,2.91-5.53,2.45,1.19,5.02,2.43,7.79,3.78l3.25,1.58c2.77,1.35,5.34,2.6,7.79,3.79-1.3,1.73-1.94,3.74-2.56,5.7-.06.2-.12.39-.19.59-1.28,3.99-2.59,8.74-2.61,13.67,0,0,0,.01,0,.02l-22.26,16.84,7.66-15.74c1.09-.13,2.06-.8,2.55-1.8.78-1.61.11-3.55-1.5-4.34s-3.55-.11-4.34,1.5c-.49,1-.42,2.18.16,3.12l-7.66,15.74-.5-27.91Z"/>
      </g>
      <path class="cls-4" d="M291.74,58.85c26.65,11.39,59.55,23.23,88.55,15.6,12.83-3.25,24.35-11.28,37.96-11.48,8.99-.33,17.92,1.86,26.25,4.95,8.55,3.18,17.19,6.89,26.41,5.59,3.69-.54,7.32-1.58,10.66-3.28,3.86-1.9,7.43-4.46,10.65-7.42l.22.21c-5.8,6.76-13.92,11.85-22.85,12.98-13.58,1.86-25.7-6.2-38.56-8.78-20.26-4.9-31.85,3.8-50.49,8.22-11.82,2.73-24.15,3.54-36.22,2.38-9.92-1.06-19.64-3.69-28.92-7.22-8.26-3.14-16.2-7.03-23.79-11.48l.14-.27h0Z"/>
    </g>
  </g>
</svg>